<svg width="32" height="32" viewBox="0 0 32 32" fill="none" xmlns="http://www.w3.org/2000/svg">
<path d="M29.3433 9.07825C27.2348 6.86927 22.5866 3 15.8939 3C9.20119 3 4.75393 6.8839 2.70447 9.14013C1.88476 10.0425 1.88927 11.4177 2.70785 12.3212C4.73888 14.5639 9.22226 18.3608 16.3013 18.3608C23.3804 18.3608 27.5873 14.5028 29.4611 12.22C30.2221 11.2925 30.172 9.94647 29.3433 9.07825ZM4.22614 10.9546C4.10952 10.8256 4.10726 10.6343 4.22087 10.509C5.37238 9.24139 7.34359 7.44121 10.0676 6.25721C9.1647 7.48809 8.63127 9.00512 8.63127 10.6467C8.63127 12.2882 9.19028 13.8776 10.1326 15.1235C7.31048 13.9616 5.35169 12.1971 4.22651 10.9546H4.22614ZM16.0974 16.0506C13.1086 16.0506 10.6766 13.6263 10.6766 10.6463C10.6766 7.66623 13.1083 5.24198 16.0974 5.24198C19.0866 5.24198 21.5183 7.66623 21.5183 10.6463C21.5183 13.6263 19.0866 16.0506 16.0974 16.0506ZM27.8777 10.9283C27.0903 11.8877 25.7451 13.2656 23.8077 14.3802C23.2062 14.7263 22.5829 15.0252 21.9411 15.2795C22.9564 14.0081 23.5636 12.3981 23.5636 10.6467C23.5636 9.08875 23.0832 7.64298 22.2627 6.44773C24.8257 7.62235 26.7217 9.29052 27.8611 10.4843C27.9778 10.6065 27.9849 10.7974 27.8777 10.9283Z" fill="#ED1C24"/>
<path d="M16.0987 6.77979C13.9108 6.77979 12.1367 8.54809 12.1367 10.7297C12.1367 12.9113 13.9104 14.6796 16.0987 14.6796C18.287 14.6796 20.0607 12.9113 20.0607 10.7297C20.0607 8.54809 18.287 6.77979 16.0987 6.77979ZM16.1533 10.5133C16.1533 10.6704 16.0254 10.7983 15.8674 10.7983H14.1839C14.0263 10.7983 13.898 10.6708 13.898 10.5133V8.835C13.898 8.67786 14.0259 8.54997 14.1839 8.54997H15.8674C16.025 8.54997 16.1533 8.67748 16.1533 8.835V10.5133Z" fill="#ED1C24"/>
<path d="M7.31364 21.3611C8.62442 21.3568 9.5955 21.7568 10.2266 22.5609C10.6122 23.0504 10.8073 23.636 10.8118 24.3176C10.8118 25.3492 10.3822 26.1423 9.52305 26.6974C8.93542 27.0775 8.19912 27.2677 7.31364 27.2677H6.09704V29.2802C6.09704 29.3546 6.07075 29.418 6.01815 29.4704C5.96556 29.5228 5.90411 29.5491 5.83408 29.5491H3.26967C3.19507 29.5491 3.13148 29.5228 3.07889 29.4704C3.0263 29.418 3 29.3546 3 29.2802V21.63C3 21.5556 3.02737 21.4922 3.08211 21.4398C3.13685 21.3873 3.19937 21.3611 3.26967 21.3611H7.31364ZM6.77457 25.052C7.1996 25.052 7.47383 24.8904 7.59646 24.5667C7.63161 24.4795 7.64905 24.3941 7.64905 24.3109C7.64905 24.1274 7.57875 23.9592 7.43868 23.8062C7.29835 23.6531 7.07698 23.5766 6.77457 23.5766H6.09731V25.0517H6.77457V25.052Z" fill="black"/>
<path d="M15.9112 21.3611C17.5638 21.3568 18.833 21.8616 19.7185 22.8755C20.3233 23.5659 20.6259 24.427 20.6259 25.4583C20.6259 26.9705 19.9857 28.1024 18.7058 28.8541C17.9209 29.3174 16.9896 29.5491 15.9112 29.5491H12.1369C12.0623 29.5491 11.9987 29.5228 11.9461 29.4704C11.8935 29.418 11.8672 29.3546 11.8672 29.2802V21.63C11.8672 21.5556 11.8946 21.4922 11.9493 21.4398C12.004 21.3873 12.0666 21.3611 12.1369 21.3611H15.9112ZM15.773 27.2022C16.2506 27.2022 16.6397 27.0438 16.9402 26.7268C17.2405 26.4101 17.3907 25.9861 17.3907 25.4551C17.3907 24.9241 17.2405 24.5003 16.9402 24.1833C16.6399 23.8666 16.2509 23.7082 15.773 23.7082H14.9642V27.2025H15.773V27.2022Z" fill="black"/>
<path d="M29.5732 29.549H26.7721C26.61 29.549 26.4761 29.4813 26.371 29.3457L25.0296 27.556L23.9184 29.3457C23.835 29.4813 23.7014 29.549 23.5173 29.549H20.9263C20.786 29.549 20.695 29.5086 20.6534 29.4278C20.6116 29.347 20.6325 29.2496 20.7157 29.1359L23.3262 25.2814L20.6894 21.761C20.6105 21.6473 20.5885 21.5523 20.6236 21.4758C20.6585 21.3996 20.7463 21.361 20.8866 21.361H23.6877C23.8498 21.361 23.9858 21.4266 24.0953 21.5577L25.3709 23.2686L26.5478 21.5577C26.6487 21.4223 26.7823 21.3568 26.9489 21.361H29.5461C29.6864 21.361 29.7763 21.4014 29.8158 21.4825C29.8552 21.5633 29.8332 21.6606 29.75 21.7741L27.0276 25.4716L29.7763 29.1493C29.8552 29.263 29.8772 29.358 29.8421 29.4345C29.8069 29.511 29.7173 29.5492 29.5724 29.5492L29.5732 29.549Z" fill="black"/>
</svg>
