<svg width="81" height="63" viewBox="0 0 81 63" fill="none" xmlns="http://www.w3.org/2000/svg">
<g clip-path="url(#clip0_1805_530)">
<path d="M0 4.98585C0 4.76157 0.0825424 4.57037 0.247627 4.41224C0.412712 4.25411 0.601265 4.17505 0.813286 4.17505H8.54719C8.77215 4.17505 8.96071 4.25411 9.11284 4.41224C9.26417 4.57037 9.34105 4.76157 9.34105 4.98585V28.0579C9.34105 28.2822 9.26174 28.4734 9.10313 28.6315C8.94452 28.7897 8.75921 28.8687 8.54799 28.8687H0.813286C0.588317 28.8687 0.396527 28.7897 0.237916 28.6315C0.0793055 28.4734 0 28.2822 0 28.0579L0 4.98585Z" fill="#ED1C24"/>
<path d="M13.0093 38.3063C16.9625 38.2933 19.8911 39.4995 21.7944 41.9246C22.9573 43.401 23.5456 45.167 23.5594 47.2227C23.5594 50.3336 22.2638 52.7257 19.6726 54.3997C17.9004 55.5462 15.6798 56.1198 13.0093 56.1198H9.34024V62.1891C9.34024 62.4134 9.26094 62.6046 9.10232 62.7627C8.94371 62.9209 8.7584 62.9999 8.54719 62.9999H0.813286C0.588317 62.9999 0.396527 62.9209 0.237916 62.7627C0.0793055 62.6046 0 62.4134 0 62.1891V39.1171C0 38.8928 0.0825424 38.7016 0.247627 38.5434C0.412712 38.3853 0.601265 38.3063 0.813286 38.3063H13.0093ZM11.3836 49.4373C12.6654 49.4373 13.4924 48.95 13.8623 47.9738C13.9683 47.7108 14.0209 47.4534 14.0209 47.2025C14.0209 46.6491 13.8089 46.1416 13.3864 45.6802C12.9632 45.2187 12.2956 44.9879 11.3836 44.9879H9.34105V49.4365H11.3836V49.4373Z" fill="#ED1C24"/>
<path d="M38.9343 38.3062C43.9184 38.2933 47.7461 39.8157 50.4166 42.8734C52.2406 44.9556 53.1535 47.5526 53.1535 50.6627C53.1535 55.2234 51.2226 58.6369 47.3626 60.9039C44.9955 62.3012 42.1867 62.9999 38.9343 62.9999H27.5516C27.3266 62.9999 27.1348 62.9208 26.9762 62.7627C26.8176 62.6046 26.7383 62.4134 26.7383 62.1891V39.117C26.7383 38.8928 26.8208 38.7016 26.9859 38.5434C27.151 38.3853 27.3395 38.3062 27.5516 38.3062H38.9343ZM38.5176 55.9221C39.958 55.9221 41.1314 55.4445 42.0378 54.4885C42.9433 53.5332 43.3965 52.2545 43.3965 50.6531C43.3965 49.0516 42.9433 47.7737 42.0378 46.8177C41.1322 45.8625 39.9588 45.3848 38.5176 45.3848H36.0785V55.9229H38.5176V55.9221Z" fill="#ED1C24"/>
<path d="M80.1391 62.9999H71.6914C71.2027 62.9999 70.7989 62.7958 70.4816 62.3868L66.4362 56.9895L63.0852 62.3868C62.8335 62.7958 62.4305 62.9999 61.8754 62.9999H54.0614C53.6381 62.9999 53.3638 62.8781 53.2384 62.6345C53.1121 62.3908 53.1752 62.0971 53.4261 61.7543L61.2992 50.1295L53.3468 39.5124C53.1089 39.1695 53.0425 38.8831 53.1485 38.6524C53.2537 38.4224 53.5184 38.3063 53.9416 38.3063H62.3892C62.878 38.3063 63.2883 38.5039 63.6185 38.8992L67.4656 44.0593L71.0149 38.8992C71.3192 38.491 71.7222 38.2933 72.2247 38.3063H80.0574C80.4806 38.3063 80.7517 38.4281 80.8706 38.6725C80.9896 38.9162 80.9232 39.2098 80.6724 39.5519L72.4618 50.7031L80.7517 61.7946C80.9896 62.1375 81.056 62.4239 80.9499 62.6546C80.8439 62.8854 80.5737 63.0007 80.1367 63.0007L80.1391 62.9999Z" fill="#ED1C24"/>
<path d="M79.3394 13.0754C74.8036 8.32346 64.8047 0 50.4075 0C36.0103 0 26.4435 8.35493 22.0348 13.2085C20.2714 15.1496 20.2811 18.108 22.042 20.0515C26.4111 24.876 36.0556 33.0438 51.2839 33.0438C66.5122 33.0438 75.5619 24.7445 79.5927 19.8337C81.2298 17.8385 81.1222 14.943 79.3394 13.0754ZM25.3081 17.1116C25.0573 16.8341 25.0524 16.4226 25.2968 16.1532C27.7739 13.4263 32.0143 9.55379 37.874 7.00681C35.9318 9.65464 34.7843 12.918 34.7843 16.4493C34.7843 19.9805 35.9868 23.3996 38.014 26.0797C31.9431 23.5803 27.7294 19.7845 25.3089 17.1116H25.3081ZM50.8453 28.074C44.4159 28.074 39.1842 22.8591 39.1842 16.4485C39.1842 10.0379 44.4151 4.82288 50.8453 4.82288C57.2755 4.82288 62.5064 10.0379 62.5064 16.4485C62.5064 22.8591 57.2755 28.074 50.8453 28.074ZM76.1866 17.0552C74.4929 19.1189 71.599 22.083 67.4315 24.4807C66.1375 25.2253 64.7966 25.8683 63.416 26.4153C65.6002 23.6804 66.9063 20.2169 66.9063 16.4493C66.9063 13.0979 65.8729 9.98783 64.1079 7.41665C69.6213 9.94346 73.6998 13.532 76.151 16.0999C76.4019 16.3629 76.4173 16.7736 76.1866 17.0552Z" fill="#ED1C24"/>
<path d="M50.8452 8.13062C46.1386 8.13062 42.3223 11.9345 42.3223 16.6275C42.3223 21.3205 46.1378 25.1245 50.8452 25.1245C55.5525 25.1245 59.3681 21.3205 59.3681 16.6275C59.3681 11.9345 55.5525 8.13062 50.8452 8.13062ZM50.9625 16.162C50.9625 16.5001 50.6874 16.7752 50.3475 16.7752H46.7261C46.3871 16.7752 46.1111 16.5009 46.1111 16.162V12.5517C46.1111 12.2137 46.3863 11.9386 46.7261 11.9386H50.3475C50.6866 11.9386 50.9625 12.2129 50.9625 12.5517V16.162Z" fill="#ED1C24"/>
</g>
<defs>
<clipPath id="clip0_1805_530">
<rect width="81" height="63" fill="white"/>
</clipPath>
</defs>
</svg>
