<svg width="256" height="256" viewBox="0 0 256 256" fill="none" xmlns="http://www.w3.org/2000/svg">
<path d="M17.2852 55.6118C17.2852 54.9995 17.5105 54.4775 17.9612 54.0458C18.4119 53.614 18.9267 53.3982 19.5055 53.3982H40.6201C41.2343 53.3982 41.7491 53.614 42.1644 54.0458C42.5776 54.4775 42.7874 54.9995 42.7874 55.6118V118.602C42.7874 119.214 42.5709 119.736 42.1379 120.168C41.7049 120.599 41.1989 120.815 40.6223 120.815H19.5055C18.8913 120.815 18.3677 120.599 17.9347 120.168C17.5017 119.736 17.2852 119.214 17.2852 118.602V55.6118Z" fill="black"/>
<path d="M52.8023 146.581C63.5949 146.546 71.5905 149.838 76.7868 156.459C79.9616 160.49 81.5678 165.312 81.6054 170.924C81.6054 179.417 78.0682 185.948 70.9939 190.518C66.1555 193.648 60.0931 195.214 52.8023 195.214H42.7852V211.784C42.7852 212.397 42.5687 212.919 42.1357 213.35C41.7027 213.782 41.1967 213.998 40.6201 213.998H19.5055C18.8913 213.998 18.3677 213.782 17.9347 213.35C17.5017 212.919 17.2852 212.397 17.2852 211.784V148.794C17.2852 148.182 17.5105 147.66 17.9612 147.228C18.4119 146.797 18.9267 146.581 19.5055 146.581H52.8023ZM48.3638 176.97C51.8634 176.97 54.1213 175.64 55.131 172.975C55.4204 172.256 55.564 171.554 55.564 170.869C55.564 169.358 54.9851 167.972 53.8319 166.713C52.6764 165.453 50.8537 164.823 48.3638 164.823H42.7874V176.968H48.3638V176.97Z" fill="black"/>
<path d="M123.58 146.581C137.187 146.546 147.637 150.702 154.928 159.05C159.908 164.735 162.4 171.825 162.4 180.316C162.4 192.767 157.129 202.086 146.59 208.275C140.128 212.09 132.459 213.998 123.58 213.998H92.5036C91.8894 213.998 91.3658 213.782 90.9327 213.35C90.4997 212.918 90.2832 212.396 90.2832 211.784V148.794C90.2832 148.182 90.5086 147.66 90.9593 147.228C91.41 146.797 91.9247 146.581 92.5036 146.581H123.58ZM122.442 194.674C126.375 194.674 129.578 193.37 132.053 190.76C134.525 188.153 135.762 184.661 135.762 180.289C135.762 175.917 134.525 172.428 132.053 169.818C129.581 167.21 126.377 165.906 122.442 165.906H115.783V194.677H122.442V194.674Z" fill="black"/>
<path d="M236.075 213.998H213.012C211.678 213.998 210.575 213.441 209.709 212.324L198.665 197.589L189.516 212.324C188.829 213.441 187.728 213.998 186.213 213.998H164.88C163.724 213.998 162.975 213.665 162.633 213C162.288 212.335 162.46 211.533 163.145 210.597L184.64 178.86L162.929 149.874C162.279 148.938 162.098 148.156 162.387 147.526C162.675 146.898 163.397 146.581 164.553 146.581H187.616C188.95 146.581 190.07 147.121 190.972 148.2L201.475 162.288L211.165 148.2C211.996 147.085 213.096 146.546 214.468 146.581H235.852C237.008 146.581 237.748 146.914 238.072 147.581C238.397 148.246 238.216 149.048 237.531 149.982L215.115 180.426L237.748 210.707C238.397 211.643 238.578 212.425 238.289 213.055C238 213.685 237.262 214 236.069 214L236.075 213.998Z" fill="black"/>
<path d="M233.893 77.6972C221.51 64.7239 194.211 41.9998 154.905 41.9998C115.599 41.9998 89.4803 64.8098 77.4439 78.0606C72.6298 83.36 72.6563 91.4369 77.4638 96.743C89.3919 109.914 115.723 132.214 157.298 132.214C198.873 132.214 223.58 109.555 234.585 96.1483C239.054 90.7013 238.76 82.7962 233.893 77.6972ZM86.3806 88.7167C85.6957 87.959 85.6825 86.8357 86.3497 86.1001C93.1125 78.6553 104.689 68.0829 120.687 61.1293C115.385 68.3582 112.252 77.2677 112.252 86.9084C112.252 96.5492 115.535 105.884 121.069 113.201C104.495 106.377 92.9909 96.0139 86.3828 88.7167H86.3806ZM156.1 118.646C138.547 118.646 124.264 104.408 124.264 86.9062C124.264 69.4044 138.545 55.1669 156.1 55.1669C173.656 55.1669 187.937 69.4044 187.937 86.9062C187.937 104.408 173.656 118.646 156.1 118.646ZM225.286 88.5626C220.661 94.1968 212.761 102.289 201.383 108.835C197.85 110.868 194.189 112.624 190.42 114.117C196.383 106.65 199.949 97.1945 199.949 86.9084C199.949 77.7588 197.128 69.2678 192.309 62.2482C207.361 69.1467 218.496 78.9438 225.188 85.9547C225.873 86.6727 225.915 87.7938 225.286 88.5626Z" fill="#ED1C24"/>
<path d="M156.101 64.1973C143.251 64.1973 132.832 74.5825 132.832 87.395C132.832 100.207 143.249 110.593 156.101 110.593C168.952 110.593 179.369 100.207 179.369 87.395C179.369 74.5825 168.952 64.1973 156.101 64.1973ZM156.421 86.1241C156.421 87.047 155.67 87.798 154.742 87.798H144.855C143.93 87.798 143.176 87.0492 143.176 86.1241V76.2675C143.176 75.3446 143.927 74.5935 144.855 74.5935H154.742C155.668 74.5935 156.421 75.3424 156.421 76.2675V86.1241Z" fill="#ED1C24"/>
</svg>
